Coordinates
version=1
nRows=8
nColumns=36
inDegrees=yes

Units are S.I. units (second, meters, Newtons, ...)
If the header above contains a line with 'inDegrees', this indicates whether rotational values are in degrees (yes) or radians (no).

endheader
time	pelvis_tilt	pelvis_list	pelvis_rotation	pelvis_tx	pelvis_ty	pelvis_tz	hip_flexion_r	hip_adduction_r	hip_rotation_r	knee_angle_r	knee_angle_r_beta	ankle_angle_r	subtalar_angle_r	mtp_angle_r	hip_flexion_l	hip_adduction_l	hip_rotation_l	knee_angle_l	knee_angle_l_beta	ankle_angle_l	subtalar_angle_l	mtp_angle_l	lumbar_extension	lumbar_bending	lumbar_rotation	arm_flex_r	arm_add_r	arm_rot_r	elbow_flex_r	pro_sup_r	arm_flex_l	arm_add_l	arm_rot_l	elbow_flex_l	pro_sup_l
      0.00000000	      2.30442113	     -1.54588742	     -2.09356151	     -0.13255810	      1.25026269	      0.03627619	     -0.59508785	     -0.62384194	     -2.81442746	      7.95665578	      0.13886984	     12.58709773	      0.69687135	     -7.48523542	     -1.84264756	     -2.64206464	     -8.25273966	      7.85667468	      0.13712484	     19.23071074	      3.26066092	     -7.48523542	      3.03754170	      1.49902421	      3.75040646	    -30.51704910	    -26.80443261	      7.05006276	     93.47537406	     96.57105630	     27.89598999	      2.58087239	     33.81051238	    145.17250835	    100.80361292
      0.01666670	      0.09873786	     -0.79305726	     -2.30661091	     -0.13044864	      1.24599216	      0.03587891	      1.63029826	     -1.14200983	     -2.93090578	      7.23841473	      0.12633417	     15.28649527	      3.79464361	     -7.48812867	      0.57137713	     -1.68899651	     -9.86238231	      7.75187623	      0.13529576	     19.26231922	      4.96602970	     -7.48812867	      6.82547713	      0.57653472	      3.58386147	    -32.56841454	    -30.44506399	     11.09458425	     95.43692102	     92.83709663	     27.32977297	      5.02215336	     34.95700260	    145.94803649	     95.24823623
      0.03333330	     -1.63571545	      0.27555105	     -2.68183408	     -0.13259619	      1.24377204	      0.03724526	      3.38067909	     -2.18020717	     -3.71293145	      6.12223349	      0.10685313	     15.33296310	      4.66910246	     -7.49139155	      2.69411693	     -0.69750409	    -11.34792041	      8.02770428	      0.14010987	     18.84733164	      6.13890345	     -7.49139155	      9.50231529	     -0.75392901	      4.08786776	    -32.58930712	    -32.70082329	     15.11518921	     96.87721350	     93.43315376	     27.30462443	      6.40740295	     37.01091831	    146.72216104	     86.21207544
      0.05000000	     -1.59103126	      0.82319774	     -2.82187195	     -0.13005160	      1.24479265	      0.03799730	      2.95030500	     -2.73119936	     -3.78283909	      5.18983344	      0.09057968	     15.31810689	      5.42079689	     -7.49534979	      2.23108208	     -0.08182292	    -11.56923826	      7.37442816	      0.12870805	     18.52480857	      7.01595956	     -7.49534979	      9.79839296	     -1.48606670	      4.43700822	    -32.10557673	    -33.26480026	     16.67412317	     97.30864978	     97.05309236	     26.85999740	      6.69945452	     38.09580260	    146.99302129	     80.05782518
      0.06666670	     -1.62161869	      1.09162168	     -2.89423672	     -0.12785713	      1.24522706	      0.03769615	      2.64762330	     -2.94226164	     -3.80128175	      4.52910505	      0.07904780	     15.20039978	      5.71659387	     -7.49667081	      1.88058233	      0.25456996	    -11.57633906	      6.78063327	      0.11834438	     18.33373050	      7.69631567	     -7.49667081	     10.06232841	     -1.76212824	      4.32988689	    -31.29882818	    -33.66671002	     18.28718944	     97.19244748	     96.56508365	     26.63899021	      6.23788345	     37.82824094	    147.30222756	     77.77827010
      0.08333330	     -1.47238401	      1.26726703	     -2.85469303	     -0.12784378	      1.24615218	      0.03720486	      2.18636512	     -3.08837244	     -3.77935762	      4.24898034	      0.07415870	     15.17911430	      6.16909298	     -7.49812751	      1.51305403	      0.48138232	    -11.38837882	      6.52237312	      0.11383689	     17.98443284	      7.46281222	     -7.49812751	     10.09330730	     -1.89969506	      4.33369728	    -30.90457841	    -33.63309282	     18.51902367	     96.75526125	     98.31554111	     26.85798871	      5.81342228	     37.00429728	    147.24623804	     76.25765452
      0.10000000	     -1.39571329	      1.38922517	     -2.81681022	     -0.12902876	      1.24455538	      0.03735537	      1.98257714	     -3.22835576	     -3.63886799	      4.07788909	      0.07117259	     15.20935515	      6.23838347	     -7.49898736	      1.35750470	      0.62328990	    -11.32942669	      6.40294808	      0.11175253	     18.02140023	      7.88620396	     -7.49898736	     10.10201960	     -1.97185039	      4.34970241	    -30.41695789	    -33.71530225	     18.71891258	     96.41178043	     97.89330908	     27.47218464	      5.67265813	     36.08894674	    147.12654367	     74.97291216
      0.11666670	     -1.23752545	      1.48861221	     -2.74741709	     -0.13067715	      1.24561056	      0.03812937	      1.75993016	     -3.31169935	     -3.56637526	      3.88973750	      0.06788873	     15.05267008	      6.26594633	     -7.49935340	      1.19351658	      0.72586916	    -11.09560075	      6.33362651	      0.11054264	     17.83698513	      7.79228746	     -7.49935340	      9.87264667	     -2.09946553	      4.62825366	    -30.40129872	    -33.31325750	     18.48812909	     96.09499767	     91.73115837	     28.11115203	      5.74883863	     35.83929773	    147.04188007	     72.56319512
